<svg xmlns="http://www.w3.org/2000/svg" viewBox="0 0 512 512">
  <defs>
    <linearGradient id="g" x1="0" y1="0" x2="1" y2="1">
      <stop offset="0" stop-color="#7dd3fc"/>
      <stop offset="0.5" stop-color="#0ea5e9"/>
      <stop offset="1" stop-color="#2dd4bf"/>
    </linearGradient>
  </defs>
  <rect width="512" height="512" rx="120" fill="url(#g)"/>
  <circle cx="180" cy="210" r="70" fill="#fff" opacity="0.95"/>
  <circle cx="332" cy="210" r="70" fill="#fff" opacity="0.95"/>
  <circle cx="180" cy="220" r="30" fill="#0c4a6e"/>
  <circle cx="332" cy="220" r="30" fill="#0c4a6e"/>
  <path d="M256 380c-50 0-90-30-100-70 60 30 140 30 200 0-10 40-50 70-100 70z" fill="#fff"/>
  <path d="M256 150c20-40 90-30 80 20-8 40-80 70-80 70s-72-30-80-70c-10-50 60-60 80-20z" fill="#fb7185"/>
</svg>
